#!OML:ASF H:\Dans Jumps\Project 1\Capture day 1\Session 1\subject.ASF
:FULLY-SPECIFIED
:DEGREES
129
root 0.569517 17.508 -14.0553 8.63426 -0.125085 -1.54892
lowerback -0.555645 -0.567037 0.342008
upperback 3.37836 -0.83269 2.03377
thorax 3.81278 -0.439714 1.87132
lowerneck -14.4597 0.318935 -2.09144
upperneck 27.3393 0.902282 0.374508
head 11.242 0.235759 0.618843
rclavicle -2.08724e-015 -2.90226e-014
rhumerus -24.1525 -16.9385 -77.5375
rradius 25.0828
rwrist 31.9963
rhand -18.3678 -26.0468
rfingers 7.12502
rthumb 7.91539 -55.8786
lclavicle -2.08724e-015 -2.90226e-014
lhumerus -22.5301 1.95528 85.3867
lradius 19.9784
lwrist 4.75344
lhand -24.0035 -4.15294
lfingers 7.12502
lthumb 2.47402 25.8125
rfemur -17.7456 -2.80007 21.0214
rtibia 24.1822
rfoot -14.2847 -2.89256
rtoes 8.83452
lfemur -17.7084 8.70148 -19.8055
ltibia 22.3718
lfoot -11.8816 3.83326
ltoes -2.51484
130
root 0.570979 17.5036 -14.0733 8.78635 -0.148689 -1.56065
lowerback -0.411182 -0.558251 0.344316
upperback 3.3831 -0.819077 2.04316
thorax 3.73558 -0.432861 1.88145
lowerneck -14.4539 0.318621 -2.0589
upperneck 27.1319 0.90303 0.333748
head 11.1625 0.236387 0.597281
rclavicle -4.47266e-015 7.55382e-015
rhumerus -24.1516 -16.9018 -77.526
rradius 25.1085
rwrist 31.9565
rhand -18.3534 -26.0591
rfingers 7.12502
rthumb 7.92926 -55.8904
lclavicle -4.47266e-015 7.55382e-015
lhumerus -22.5616 1.89769 85.3646
lradius 20.0188
lwrist 4.87486
lhand -24.0035 -4.11919
lfingers 7.12502
lthumb 2.47397 25.8462
rfemur -18.1062 -2.77732 21.0394
rtibia 24.4087
rfoot -14.3194 -2.90378
rtoes 8.77704
lfemur -18.094 8.73121 -19.8401
ltibia 22.6459
lfoot -11.9238 3.84602
ltoes -2.56649
131
root 0.572382 17.4988 -14.0926 8.95382 -0.184694 -1.56829
lowerback -0.263386 -0.544588 0.339544
upperback 3.39076 -0.798707 2.05012
thorax 3.65942 -0.422828 1.89327
lowerneck -14.4852 0.308216 -2.07678
upperneck 26.9384 0.890817 0.339086
head 11.0956 0.231496 0.599653
rclavicle -2.98177e-016 -1.70955e-014
rhumerus -24.146 -16.8625 -77.5176
rradius 25.1348
rwrist 31.9103
rhand -18.3627 -26.0588
rfingers 7.12502
rthumb 7.92024 -55.8905
lclavicle -2.98177e-016 -1.70955e-014
lhumerus -22.5904 1.83823 85.3381
lradius 20.0596
lwrist 4.99743
lhand -24.0117 -4.11272
lfingers 7.12502
lthumb 2.46604 25.8528
rfemur -18.5015 -2.74941 21.0534
rtibia 24.6587
rfoot -14.3609 -2.9107
rtoes 8.71772
lfemur -18.5068 8.77262 -19.8836
ltibia 22.9325
lfoot -11.9695 3.859
ltoes -2.61057
132
root 0.573739 17.4935 -14.1128 9.13825 -0.234719 -1.56829
lowerback -0.112676 -0.526618 0.324417
upperback 3.39807 -0.772219 2.0534
thorax 3.58116 -0.409979 1.90725
lowerneck -14.5389 0.291495 -2.12523
upperneck 26.7525 0.870283 0.373467
head 11.036 0.223212 0.616794
rclavicle 1.88845e-015 4.37326e-015
rhumerus -24.1425 -16.8123 -77.5122
rradius 25.1647
rwrist 31.8516
rhand -18.3672 -26.0666
rfingers 7.12502
rthumb 7.91594 -55.8983
lclavicle 1.88845e-015 4.37326e-015
lhumerus -22.6197 1.78429 85.3052
lradius 20.0981
lwrist 5.11589
lhand -24.0221 -4.1399
lfingers 7.12502
lthumb 2.45597 25.8257
rfemur -18.9365 -2.71762 21.0596
rtibia 24.9357
rfoot -14.4051 -2.91217
rtoes 8.63472
lfemur -18.9489 8.82937 -19.9407
ltibia 23.2327
lfoot -12.0198 3.86946
ltoes -2.65274
133
root 0.57492 17.4877 -14.1343 9.33851 -0.297204 -1.56152
lowerback 0.0423539 -0.505744 0.297071
upperback 3.40639 -0.74158 2.05491
thorax 3.50152 -0.395381 1.92633
lowerneck -14.6025 0.277119 -2.16515
upperneck 26.5582 0.853321 0.400089
head 10.9755 0.216543 0.630102
rclavicle 4.96962e-016 -1.86858e-014
rhumerus -24.1361 -16.7555 -77.509
rradius 25.1932
rwrist 31.7944
rhand -18.3961 -26.0512
rfingers 7.12502
rthumb 7.88806 -55.884
lclavicle 4.96962e-016 -1.86858e-014
lhumerus -22.6523 1.73028 85.2675
lradius 20.1388
lwrist 5.23643
lhand -23.9963 -4.08727
lfingers 7.12502
lthumb 2.48093 25.878
rfemur -19.4115 -2.6774 21.0592
rtibia 25.2421
rfoot -14.4511 -2.91275
rtoes 8.54133
lfemur -19.4214 8.90342 -20.01
ltibia 23.5487
lfoot -12.0746 3.87449
ltoes -2.70157
134
root 0.575906 17.4812 -14.1569 9.55427 -0.372658 -1.55088
lowerback 0.206476 -0.482489 0.26012
upperback 3.41316 -0.707505 2.05538
thorax 3.41515 -0.379285 1.94977
lowerneck -14.6446 0.27239 -2.15645
upperneck 26.33 0.849072 0.381073
head 10.8986 0.215279 0.62003
rclavicle 9.14409e-015 -1.43125e-014
rhumerus -24.1366 -16.6787 -77.5087
rradius 25.2307
rwrist 31.7258
rhand -18.4075 -26.0457
rfingers 7.12502
rthumb 7.87702 -55.8789
lclavicle 9.14409e-015 -1.43125e-014
lhumerus -22.6884 1.67422 85.2242
lradius 20.1767
lwrist 5.35936
lhand -23.967 -4.05368
lfingers 7.12502
lthumb 2.50919 25.9113
rfemur -19.9274 -2.62898 21.0555
rtibia 25.5783
rfoot -14.4976 -2.91207
rtoes 8.4301
lfemur -19.9254 8.99662 -20.089
ltibia 23.8819
lfoot -12.1332 3.87281
ltoes -2.76354
135
root 0.576537 17.474 -14.181 9.78428 -0.45357 -1.5344
lowerback 0.380857 -0.458681 0.212341
upperback 3.4194 -0.672452 2.05376
thorax 3.32251 -0.362924 1.97709
lowerneck -14.6716 0.278624 -2.09493
upperneck 26.0698 0.858503 0.315469
head 10.8074 0.22009 0.585835
rclavicle -3.18055e-015 6.75868e-015
rhumerus -24.1397 -16.5957 -77.5102
rradius 25.2683
rwrist 31.6587
rhand -18.4077 -26.0346
rfingers 7.12502
rthumb 7.87683 -55.8679
lclavicle -3.18055e-015 6.75868e-015
lhumerus -22.7294 1.60739 85.176
lradius 20.2162
lwrist 5.4911
lhand -23.9276 -3.99258
lfingers 7.12502
lthumb 2.54727 25.972
rfemur -20.4817 -2.57566 21.0472
rtibia 25.9437
rfoot -14.5467 -2.91316
rtoes 8.3134
lfemur -20.4612 9.1042 -20.1787
ltibia 24.2333
lfoot -12.1952 3.86095
ltoes -2.83997
136
root 0.576864 17.4661 -14.2062 10.028 -0.543868 -1.51183
lowerback 0.562501 -0.433466 0.153012
upperback 3.42696 -0.635444 2.05003
thorax 3.22717 -0.345835 2.00867
lowerneck -14.6859 0.294581 -1.99115
upperneck 25.7774 0.880317 0.211091
head 10.7024 0.230247 0.53214
rclavicle -7.25564e-015 1.19271e-014
rhumerus -24.1449 -16.5101 -77.513
rradius 25.3047
rwrist 31.6027
rhand -18.4035 -26.0114
rfingers 7.12502
rthumb 7.88093 -55.8445
lclavicle -7.25564e-015 1.19271e-014
lhumerus -22.7757 1.5333 85.1228
lradius 20.2596
lwrist 5.62772
lhand -23.8852 -3.92689
lfingers 7.12502
lthumb 2.58825 26.0372
rfemur -21.0719 -2.5183 21.0334
rtibia 26.3349
rfoot -14.6003 -2.91073
rtoes 8.20268
lfemur -21.0285 9.22785 -20.2807
ltibia 24.6039
lfoot -12.2606 3.84357
ltoes -2.94687
137
root 0.576845 17.4576 -14.2325 10.2837 -0.636418 -1.48426
lowerback 0.754579 -0.407994 0.0850828
upperback 3.43384 -0.598054 2.04403
thorax 3.12529 -0.328673 2.04265
lowerneck -14.7079 0.309886 -1.90066
upperneck 25.4771 0.901241 0.118652
head 10.5965 0.240147 0.485117
rclavicle -3.97569e-015 -7.55382e-015
rhumerus -24.1529 -16.4396 -77.5129
rradius 25.3312
rwrist 31.5688
rhand -18.3977 -25.9773
rfingers 7.12502
rthumb 7.88651 -55.8102
lclavicle -3.97569e-015 -7.55382e-015
lhumerus -22.8314 1.451 85.0652
lradius 20.3046
lwrist 5.76809
lhand -23.8608 -3.87785
lfingers 7.12502
lthumb 2.61178 26.0859
rfemur -21.6925 -2.46224 21.0161
rtibia 26.7482
rfoot -14.6602 -2.90708
rtoes 8.09146
lfemur -21.6251 9.36169 -20.3928
ltibia 24.9932
lfoot -12.329 3.81997
ltoes -3.08028
138
root 0.576437 17.4485 -14.2601 10.5493 -0.727316 -1.4551
lowerback 0.963096 -0.382643 0.0135365
upperback 3.43797 -0.56081 2.03591
thorax 3.01131 -0.311513 2.07639
lowerneck -14.7383 0.323527 -1.83151
upperneck 25.1714 0.918979 0.0494479
head 10.4906 0.249321 0.449815
rclavicle 1.68967e-015 -2.78299e-015
rhumerus -24.1703 -16.3843 -77.5097
rradius 25.353
rwrist 31.5502
rhand -18.3907 -25.9424
rfingers 7.12502
rthumb 7.89324 -55.775
lclavicle 1.68967e-015 -2.78299e-015
lhumerus -22.9006 1.35436 85.0025
lradius 20.3545
lwrist 5.92007
lhand -23.8407 -3.83416
lfingers 7.12502
lthumb 2.63117 26.1294
rfemur -22.3379 -2.40476 20.9982
rtibia 27.1787
rfoot -14.7277 -2.90339
rtoes 8.00691
lfemur -22.2497 9.499 -20.5098
ltibia 25.4003
lfoot -12.4004 3.79206
ltoes -3.22411
139
root 0.575695 17.4387 -14.2887 10.8252 -0.813564 -1.42502
lowerback 1.18449 -0.35932 -0.0616984
upperback 3.44123 -0.526459 2.02783
thorax 2.88933 -0.295774 2.11209
lowerneck -14.7783 0.333261 -1.79403
upperneck 24.8586 0.932286 0.00699613
head 10.3843 0.256668 0.42898
rclavicle -4.37326e-015 2.22639e-014
rhumerus -24.192 -16.3435 -77.5025
rradius 25.3669
rwrist 31.5476
rhand -18.406 -25.8872
rfingers 7.12502
rthumb 7.87845 -55.7203
lclavicle -4.37326e-015 2.22639e-014
lhumerus -22.9802 1.25914 84.9337
lradius 20.4058
lwrist 6.07362
lhand -23.8361 -3.80842
lfingers 7.12502
lthumb 2.63561 26.155
rfemur -23.0049 -2.34836 20.9806
rtibia 27.6224
rfoot -14.8033 -2.90134
rtoes 7.93309
lfemur -22.9016 9.63751 -20.6312
ltibia 25.8242
lfoot -12.4744 3.76005
ltoes -3.37012
